<mxfile host="app.diagrams.net" modified="2024-03-12T13:29:39.480Z" agent="Mozilla/5.0 (Windows NT 10.0; Win64; x64) AppleWebKit/537.36 (KHTML, like Gecko) Chrome/122.0.0.0 Safari/537.36" etag="vAYJQFcMLUcqVYbhRHAB" version="24.0.5" type="device">
  <diagram name="Página-1" id="xAbwcKnsHe-Xy76aRxFj">
    <mxGraphModel dx="2050" dy="1267" grid="0" gridSize="10" guides="1" tooltips="1" connect="1" arrows="1" fold="1" page="0" pageScale="1" pageWidth="827" pageHeight="1169" math="0" shadow="0">
      <root>
        <mxCell id="0" />
        <mxCell id="1" parent="0" />
        <mxCell id="KgFbUV6Xehr1as8xdOpl-1" value="" style="rounded=0;whiteSpace=wrap;html=1;" vertex="1" parent="1">
          <mxGeometry x="-242" y="-26" width="629" height="554" as="geometry" />
        </mxCell>
        <mxCell id="KgFbUV6Xehr1as8xdOpl-2" value="Header" style="rounded=0;whiteSpace=wrap;html=1;" vertex="1" parent="1">
          <mxGeometry x="-242" y="-26" width="629" height="126" as="geometry" />
        </mxCell>
        <mxCell id="KgFbUV6Xehr1as8xdOpl-3" value="Imagem" style="ellipse;whiteSpace=wrap;html=1;" vertex="1" parent="1">
          <mxGeometry x="-132" y="-20" width="129" height="114" as="geometry" />
        </mxCell>
        <mxCell id="KgFbUV6Xehr1as8xdOpl-4" value="Nome" style="rounded=0;whiteSpace=wrap;html=1;" vertex="1" parent="1">
          <mxGeometry x="68" y="-9" width="261" height="94" as="geometry" />
        </mxCell>
        <mxCell id="KgFbUV6Xehr1as8xdOpl-5" value="menu" style="rounded=0;whiteSpace=wrap;html=1;" vertex="1" parent="1">
          <mxGeometry x="-242" y="100" width="629" height="42" as="geometry" />
        </mxCell>
        <mxCell id="KgFbUV6Xehr1as8xdOpl-6" value="HOME" style="rounded=0;whiteSpace=wrap;html=1;" vertex="1" parent="1">
          <mxGeometry x="-193" y="100" width="153" height="42" as="geometry" />
        </mxCell>
        <mxCell id="KgFbUV6Xehr1as8xdOpl-7" value="SERVIÇOS" style="rounded=0;whiteSpace=wrap;html=1;" vertex="1" parent="1">
          <mxGeometry x="2" y="100" width="153" height="42" as="geometry" />
        </mxCell>
        <mxCell id="KgFbUV6Xehr1as8xdOpl-8" value="CONTATO" style="rounded=0;whiteSpace=wrap;html=1;" vertex="1" parent="1">
          <mxGeometry x="196" y="100" width="153" height="42" as="geometry" />
        </mxCell>
        <mxCell id="KgFbUV6Xehr1as8xdOpl-9" value="imagem" style="rounded=0;whiteSpace=wrap;html=1;" vertex="1" parent="1">
          <mxGeometry x="-193" y="158" width="353" height="175" as="geometry" />
        </mxCell>
        <mxCell id="KgFbUV6Xehr1as8xdOpl-10" value="Texto" style="rounded=0;whiteSpace=wrap;html=1;" vertex="1" parent="1">
          <mxGeometry x="185" y="158" width="172" height="174" as="geometry" />
        </mxCell>
        <mxCell id="KgFbUV6Xehr1as8xdOpl-11" value="Rodapé com redes sociais" style="rounded=0;whiteSpace=wrap;html=1;" vertex="1" parent="1">
          <mxGeometry x="-242" y="526" width="628" height="31" as="geometry" />
        </mxCell>
        <mxCell id="KgFbUV6Xehr1as8xdOpl-12" value="Wireframe" style="text;html=1;align=center;verticalAlign=middle;resizable=0;points=[];autosize=1;strokeColor=none;fillColor=none;fontSize=16;" vertex="1" parent="1">
          <mxGeometry x="32.5" y="-70" width="92" height="31" as="geometry" />
        </mxCell>
        <mxCell id="KgFbUV6Xehr1as8xdOpl-13" value="" style="rounded=0;whiteSpace=wrap;html=1;" vertex="1" parent="1">
          <mxGeometry x="452" y="-26" width="655" height="425" as="geometry" />
        </mxCell>
        <mxCell id="KgFbUV6Xehr1as8xdOpl-14" value="Sidemenu" style="rounded=0;whiteSpace=wrap;html=1;" vertex="1" parent="1">
          <mxGeometry x="452" y="-26" width="187" height="425" as="geometry" />
        </mxCell>
        <mxCell id="KgFbUV6Xehr1as8xdOpl-15" value="Imagem" style="ellipse;whiteSpace=wrap;html=1;" vertex="1" parent="1">
          <mxGeometry x="481" width="129" height="114" as="geometry" />
        </mxCell>
        <mxCell id="KgFbUV6Xehr1as8xdOpl-16" value="Nome" style="rounded=0;whiteSpace=wrap;html=1;" vertex="1" parent="1">
          <mxGeometry x="472.5" y="128" width="146" height="56" as="geometry" />
        </mxCell>
        <mxCell id="KgFbUV6Xehr1as8xdOpl-17" value="HOME" style="rounded=0;whiteSpace=wrap;html=1;" vertex="1" parent="1">
          <mxGeometry x="472.5" y="199" width="148" height="42" as="geometry" />
        </mxCell>
        <mxCell id="KgFbUV6Xehr1as8xdOpl-18" value="SERVIÇOS" style="rounded=0;whiteSpace=wrap;html=1;" vertex="1" parent="1">
          <mxGeometry x="472.5" y="256" width="148" height="42" as="geometry" />
        </mxCell>
        <mxCell id="KgFbUV6Xehr1as8xdOpl-19" value="CONTATO" style="rounded=0;whiteSpace=wrap;html=1;" vertex="1" parent="1">
          <mxGeometry x="472.5" y="313" width="148" height="42" as="geometry" />
        </mxCell>
        <mxCell id="KgFbUV6Xehr1as8xdOpl-21" value="Rodapé com redes sociais" style="rounded=0;whiteSpace=wrap;html=1;" vertex="1" parent="1">
          <mxGeometry x="452" y="367" width="186" height="32" as="geometry" />
        </mxCell>
        <mxCell id="KgFbUV6Xehr1as8xdOpl-22" value="imagem" style="rounded=0;whiteSpace=wrap;html=1;" vertex="1" parent="1">
          <mxGeometry x="697" y="5" width="353" height="175" as="geometry" />
        </mxCell>
        <mxCell id="KgFbUV6Xehr1as8xdOpl-23" value="Texto" style="rounded=0;whiteSpace=wrap;html=1;" vertex="1" parent="1">
          <mxGeometry x="697" y="199" width="355" height="174" as="geometry" />
        </mxCell>
        <mxCell id="KgFbUV6Xehr1as8xdOpl-24" value="Formulário de contato" style="rounded=0;whiteSpace=wrap;html=1;" vertex="1" parent="1">
          <mxGeometry x="-193" y="355" width="548" height="152" as="geometry" />
        </mxCell>
      </root>
    </mxGraphModel>
  </diagram>
</mxfile>
